<?xml version="1.0" standalone="no"?>
<!DOCTYPE svg PUBLIC "-//W3C//DTD SVG 20010904//EN"
 "http://www.w3.org/TR/2001/REC-SVG-20010904/DTD/svg10.dtd">
<svg version="1.0" xmlns="http://www.w3.org/2000/svg"
 width="256.000000pt" height="256.000000pt" viewBox="0 0 256.000000 256.000000"
 preserveAspectRatio="xMidYMid meet">
<metadata>
Created by potrace 1.14, written by Peter Selinger 2001-2017
</metadata>
<g transform="translate(0.000000,256.000000) scale(0.100000,-0.100000)"
fill="#000000" stroke="none">
<path d="M60 1659 c-57 -26 -67 -62 -46 -162 42 -202 100 -414 122 -449 38
-60 118 -121 176 -134 10 -2 28 -7 41 -10 52 -13 145 -17 362 -18 227 0 231 0
285 25 72 34 132 95 170 173 17 35 32 69 34 77 1 8 7 23 13 34 6 11 12 25 13
30 1 6 10 30 21 54 10 24 19 47 19 52 0 31 21 -7 64 -113 27 -68 57 -139 67
-159 26 -51 99 -122 156 -149 47 -23 56 -24 308 -23 172 0 280 4 320 13 121
26 204 80 245 160 16 31 58 174 75 250 2 14 17 80 32 148 26 119 26 124 9 156
-34 64 55 60 -1255 61 -1083 0 -1198 -1 -1231 -16z m411 -102 c3 -23 -10 -271
-20 -374 -4 -48 -138 68 -185 162 -26 52 -69 202 -61 214 2 4 63 8 134 9 96 1
131 -2 132 -11z m1253 -36 c-2 -25 -6 -98 -10 -161 -6 -106 -10 -165 -13 -182
-1 -8 -42 3 -59 16 -57 45 -99 98 -128 160 -31 66 -66 192 -58 207 2 4 64 7
138 7 l134 0 -4 -47z"/>
</g>
</svg>
